<svg width="147" height="30" viewBox="0 0 147 30" fill="none" xmlns="http://www.w3.org/2000/svg">
<path d="M15.2277 29.36C14.2143 29.36 13.3877 29.1467 12.7477 28.72C12.1343 28.2933 11.6143 27.6133 11.1877 26.68L1.50766 5.32C1.08099 4.38667 0.947656 3.54667 1.10766 2.8C1.26766 2.05333 1.64099 1.48 2.22766 1.08C2.81432 0.653332 3.54766 0.439998 4.42766 0.439998C5.49432 0.439998 6.30766 0.679998 6.86766 1.16C7.42766 1.64 7.90766 2.34667 8.30766 3.28L15.3477 19.6L22.3877 3.24C22.7877 2.30667 23.2677 1.61333 23.8277 1.16C24.3877 0.679998 25.1743 0.439998 26.1877 0.439998C27.0143 0.439998 27.7077 0.653332 28.2677 1.08C28.8277 1.50667 29.1743 2.09333 29.3077 2.84C29.4677 3.56 29.3343 4.38667 28.9077 5.32L19.1877 26.68C18.7877 27.6133 18.2677 28.2933 17.6277 28.72C17.0143 29.1467 16.2143 29.36 15.2277 29.36ZM40.1398 29.44C37.7398 29.44 35.6598 29.0267 33.8998 28.2C32.1665 27.3467 30.8332 26.1467 29.8998 24.6C28.9665 23.0533 28.4998 21.2267 28.4998 19.12C28.4998 17.12 28.9398 15.3467 29.8198 13.8C30.7265 12.2533 31.9532 11.0533 33.4998 10.2C35.0732 9.32 36.8598 8.88 38.8598 8.88C40.8332 8.88 42.5398 9.29333 43.9798 10.12C45.4465 10.9467 46.5665 12.1333 47.3398 13.68C48.1398 15.2 48.5398 16.9867 48.5398 19.04C48.5398 20.08 47.9265 20.6 46.6998 20.6H35.2998C35.5398 21.88 36.0732 22.8 36.8998 23.36C37.7265 23.92 38.8732 24.2 40.3398 24.2C40.8998 24.2 41.5665 24.1333 42.3398 24C43.1132 23.8667 43.8465 23.6533 44.5398 23.36C45.3932 23.04 46.1132 23.04 46.6998 23.36C47.2865 23.6533 47.6732 24.12 47.8598 24.76C48.0732 25.3733 48.0465 26.0133 47.7798 26.68C47.5398 27.32 47.0465 27.8133 46.2998 28.16C45.3665 28.6133 44.3665 28.9333 43.2998 29.12C42.2598 29.3333 41.2065 29.44 40.1398 29.44ZM39.1798 13.48C38.1132 13.48 37.2332 13.8 36.5398 14.44C35.8732 15.08 35.4465 16.0133 35.2598 17.24H42.6998C42.6198 15.9867 42.2732 15.0533 41.6598 14.44C41.0732 13.8 40.2465 13.48 39.1798 13.48ZM61.7711 29.44C58.7844 29.44 56.5711 28.7467 55.1311 27.36C53.6911 25.9733 52.9711 23.88 52.9711 21.08V14.56H51.6111C49.8244 14.56 48.9311 13.68 48.9311 11.92C48.9311 10.1867 49.8244 9.32 51.6111 9.32H52.9711V6.84C52.9711 5.66667 53.2778 4.77333 53.8911 4.16C54.5044 3.54666 55.3844 3.24 56.5311 3.24C58.9044 3.24 60.0911 4.44 60.0911 6.84V9.32H63.3711C65.1844 9.32 66.0911 10.1867 66.0911 11.92C66.0911 13.68 65.1844 14.56 63.3711 14.56H60.0911V20.84C60.0911 22.76 61.0644 23.72 63.0111 23.72C63.3844 23.72 63.7444 23.68 64.0911 23.6C64.4378 23.52 64.7578 23.48 65.0511 23.48C65.4778 23.4533 65.8244 23.5867 66.0911 23.88C66.3578 24.1467 66.4911 24.7733 66.4911 25.76C66.4911 26.56 66.3711 27.24 66.1311 27.8C65.8911 28.3333 65.4644 28.72 64.8511 28.96C64.4778 29.0933 63.9711 29.2 63.3311 29.28C62.6911 29.3867 62.1711 29.44 61.7711 29.44Z" fill="#FF7852"/>
<path d="M78.5223 29.44C76.309 29.44 74.3757 29.0267 72.7223 28.2C71.0957 27.3733 69.829 26.1867 68.9223 24.64C68.0157 23.0933 67.5623 21.2533 67.5623 19.12C67.5623 16.9867 68.0157 15.16 68.9223 13.64C69.829 12.0933 71.0957 10.92 72.7223 10.12C74.3757 9.29333 76.309 8.88 78.5223 8.88C79.2957 8.88 80.109 8.96 80.9623 9.12C81.8157 9.25333 82.6957 9.52 83.6023 9.92C84.2157 10.16 84.6557 10.5333 84.9223 11.04C85.189 11.52 85.2957 12.04 85.2423 12.6C85.2157 13.16 85.0557 13.6667 84.7623 14.12C84.4957 14.5733 84.109 14.88 83.6023 15.04C83.1223 15.2 82.5757 15.1333 81.9623 14.84C81.0823 14.44 80.189 14.24 79.2823 14.24C77.869 14.24 76.7757 14.6667 76.0023 15.52C75.229 16.3733 74.8423 17.5733 74.8423 19.12C74.8423 20.6933 75.229 21.92 76.0023 22.8C76.7757 23.6533 77.869 24.08 79.2823 24.08C79.709 24.08 80.149 24.04 80.6023 23.96C81.0557 23.8533 81.509 23.6933 81.9623 23.48C82.6023 23.1867 83.149 23.1333 83.6023 23.32C84.0823 23.48 84.4557 23.7867 84.7223 24.24C85.0157 24.6667 85.1757 25.16 85.2023 25.72C85.2557 26.28 85.149 26.8133 84.8823 27.32C84.6157 27.8 84.1623 28.16 83.5223 28.4C82.6157 28.8 81.749 29.0667 80.9223 29.2C80.0957 29.36 79.2957 29.44 78.5223 29.44ZM94.6583 29.44C93.1383 29.44 91.7916 29.16 90.6183 28.6C89.4716 28.04 88.5649 27.28 87.8983 26.32C87.2583 25.3333 86.9383 24.2133 86.9383 22.96C86.9383 21.5467 87.3116 20.4267 88.0583 19.6C88.8049 18.7467 90.0049 18.1467 91.6583 17.8C93.3116 17.4267 95.5116 17.24 98.2583 17.24H99.7783V16.68C99.7783 15.72 99.5249 15.04 99.0183 14.64C98.5383 14.24 97.6983 14.04 96.4983 14.04C95.8316 14.04 95.0983 14.12 94.2983 14.28C93.5249 14.4133 92.6449 14.6667 91.6583 15.04C90.7783 15.36 90.0449 15.3467 89.4583 15C88.8716 14.6533 88.4849 14.16 88.2983 13.52C88.1383 12.8533 88.2049 12.2 88.4983 11.56C88.8183 10.8933 89.4183 10.4 90.2983 10.08C91.5783 9.62667 92.7516 9.32 93.8183 9.16C94.9116 8.97333 95.9116 8.88 96.8183 8.88C100.098 8.88 102.525 9.58667 104.098 11C105.698 12.4133 106.498 14.64 106.498 17.68V25.76C106.498 28.16 105.405 29.36 103.218 29.36C101.138 29.36 100.032 28.2933 99.8983 26.16C99.5249 27.1733 98.8849 27.9733 97.9783 28.56C97.0716 29.1467 95.9649 29.44 94.6583 29.44ZM96.2583 24.8C97.2449 24.8 98.0716 24.48 98.7383 23.84C99.4316 23.2 99.7783 22.36 99.7783 21.32V20.6H98.2583C96.6849 20.6 95.5249 20.7733 94.7783 21.12C94.0583 21.44 93.6983 21.96 93.6983 22.68C93.6983 23.2933 93.9116 23.8 94.3383 24.2C94.7916 24.6 95.4316 24.8 96.2583 24.8ZM114.193 29.36C111.766 29.36 110.553 28.16 110.553 25.76V12.52C110.553 10.1467 111.713 8.96 114.033 8.96C115.126 8.96 115.966 9.26667 116.553 9.88C117.166 10.4933 117.473 11.3733 117.473 12.52V12.64C117.926 11.4933 118.659 10.5867 119.673 9.92C120.686 9.25333 121.886 8.90667 123.273 8.88C124.046 8.85333 124.619 9.05333 124.993 9.48C125.393 9.88 125.606 10.64 125.633 11.76C125.633 12.72 125.433 13.48 125.033 14.04C124.633 14.6 123.873 14.9333 122.753 15.04L121.833 15.12C120.419 15.2533 119.393 15.6533 118.753 16.32C118.113 16.96 117.793 17.92 117.793 19.2V25.76C117.793 28.16 116.593 29.36 114.193 29.36ZM138.265 29.44C135.865 29.44 133.785 29.0267 132.025 28.2C130.292 27.3467 128.958 26.1467 128.025 24.6C127.092 23.0533 126.625 21.2267 126.625 19.12C126.625 17.12 127.065 15.3467 127.945 13.8C128.852 12.2533 130.078 11.0533 131.625 10.2C133.198 9.32 134.985 8.88 136.985 8.88C138.958 8.88 140.665 9.29333 142.105 10.12C143.572 10.9467 144.692 12.1333 145.465 13.68C146.265 15.2 146.665 16.9867 146.665 19.04C146.665 20.08 146.052 20.6 144.825 20.6H133.425C133.665 21.88 134.198 22.8 135.025 23.36C135.852 23.92 136.998 24.2 138.465 24.2C139.025 24.2 139.692 24.1333 140.465 24C141.238 23.8667 141.972 23.6533 142.665 23.36C143.518 23.04 144.238 23.04 144.825 23.36C145.412 23.6533 145.798 24.12 145.985 24.76C146.198 25.3733 146.172 26.0133 145.905 26.68C145.665 27.32 145.172 27.8133 144.425 28.16C143.492 28.6133 142.492 28.9333 141.425 29.12C140.385 29.3333 139.332 29.44 138.265 29.44ZM137.305 13.48C136.238 13.48 135.358 13.8 134.665 14.44C133.998 15.08 133.572 16.0133 133.385 17.24H140.825C140.745 15.9867 140.398 15.0533 139.785 14.44C139.198 13.8 138.372 13.48 137.305 13.48Z" fill="#8FC638"/>
</svg>
